<svg width="48" height="49" viewBox="0 0 48 49" fill="none" xmlns="http://www.w3.org/2000/svg">
<path d="M23.9999 0.460083C19.2888 0.460083 14.6834 1.8571 10.7662 4.47448C6.84908 7.09185 3.79601 10.812 1.99313 15.1645C0.190253 19.5171 -0.281463 24.3065 0.637637 28.9271C1.55674 33.5477 3.82537 37.792 7.15666 41.1233C10.4879 44.4546 14.7322 46.7233 19.3529 47.6424C23.9735 48.5615 28.7629 48.0897 33.1154 46.2869C37.468 44.484 41.1881 41.4309 43.8055 37.5137C46.4229 33.5966 47.8199 28.9912 47.8199 24.2801C47.8136 17.9645 45.3019 11.9095 40.8362 7.44382C36.3704 2.97808 30.3154 0.466436 23.9999 0.460083ZM23.9999 45.1001C19.8821 45.1001 15.8568 43.879 12.4329 41.5913C9.00914 39.3035 6.34059 36.0519 4.76477 32.2475C3.18896 28.4432 2.77665 24.257 3.57999 20.2183C4.38334 16.1796 6.36625 12.4698 9.27798 9.55812C12.1897 6.64639 15.8994 4.66348 19.9381 3.86013C23.9768 3.05679 28.163 3.4691 31.9674 5.04491C35.7717 6.62073 39.0234 9.28928 41.3111 12.7131C43.5988 16.1369 44.8199 20.1622 44.8199 24.2801C44.8136 29.7999 42.618 35.0919 38.7149 38.995C34.8117 42.8981 29.5198 45.0937 23.9999 45.1001Z" fill="black"/>
<path d="M33.876 15.2081C32.124 15.4841 30.372 15.6761 28.608 15.8081C29.2919 14.8705 29.6616 13.7406 29.664 12.5801C29.6989 11.8279 29.581 11.0765 29.3172 10.3712C29.0534 9.66601 28.6494 9.02158 28.1295 8.47694C27.6096 7.93231 26.9846 7.49878 26.2923 7.20258C25.6001 6.90638 24.8549 6.75366 24.102 6.75366C23.349 6.75366 22.6039 6.90638 21.9116 7.20258C21.2194 7.49878 20.5944 7.93231 20.0745 8.47694C19.5546 9.02158 19.1505 9.66601 18.8867 10.3712C18.623 11.0765 18.505 11.8279 18.54 12.5801C18.5423 13.7406 18.912 14.8705 19.596 15.8081C17.832 15.6761 16.068 15.4841 14.316 15.2081C13.595 15.0679 12.8484 15.1517 12.1764 15.4481C11.5044 15.7445 10.9391 16.2394 10.5564 16.8663C10.1737 17.4932 9.99198 18.2221 10.0355 18.9553C10.079 19.6885 10.3458 20.3908 10.8 20.968C11.0814 21.3606 11.4388 21.6925 11.8512 21.944C12.2635 22.1955 12.7222 22.3615 13.2 22.432C15.204 22.756 17.28 22.9841 19.392 23.1281V24.9881L13.2 34.7201C12.94 35.1258 12.7624 35.5789 12.6775 36.0533C12.5925 36.5277 12.6019 37.0141 12.7049 37.4849C12.9131 38.4357 13.4905 39.2649 14.31 39.79C15.1295 40.3152 16.1241 40.4932 17.0749 40.2851C17.5457 40.182 17.9915 39.9872 18.387 39.7118C18.7826 39.4364 19.12 39.0858 19.38 38.68L24 31.336L28.644 38.68C28.9018 39.089 29.2381 39.4428 29.6334 39.7211C30.0288 39.9994 30.4753 40.1965 30.9473 40.3013C31.4193 40.406 31.9073 40.4161 32.3832 40.3312C32.8592 40.2462 33.3135 40.0678 33.7201 39.8063C34.1267 39.5447 34.4775 39.2052 34.7521 38.8074C35.0267 38.4095 35.2198 37.9612 35.3202 37.4883C35.4207 37.0153 35.4264 36.5272 35.3371 36.0521C35.2478 35.577 35.0652 35.1242 34.8 34.7201L28.8 25.276V23.0801C30.912 22.9361 32.988 22.7081 34.992 22.3841C35.9468 22.2249 36.7992 21.693 37.3618 20.9054C37.9244 20.1177 38.1511 19.1388 37.992 18.1841C37.8328 17.2293 37.3009 16.3768 36.5133 15.8142C35.7256 15.2516 34.7468 15.0249 33.792 15.1841L33.876 15.2081ZM24.096 10.0121C24.6067 9.99776 25.1101 10.1361 25.5418 10.4094C25.9734 10.6827 26.3138 11.0786 26.5192 11.5464C26.7247 12.0142 26.7859 12.5327 26.6951 13.0354C26.6043 13.5382 26.3656 14.0025 26.0095 14.3689C25.6533 14.7353 25.196 14.9871 24.696 15.0922C24.196 15.1972 23.676 15.1507 23.2026 14.9587C22.7291 14.7666 22.3238 14.4377 22.0383 14.014C21.7528 13.5902 21.6002 13.091 21.6 12.5801C21.5997 11.9113 21.8604 11.2688 22.3265 10.7892C22.7926 10.3096 23.4275 10.0308 24.096 10.0121ZM34.56 19.4801C32.1431 19.8592 29.7076 20.1076 27.264 20.2241C26.8788 20.2426 26.5155 20.4087 26.2496 20.6881C25.9836 20.9674 25.8355 21.3384 25.836 21.7241V25.7201C25.8379 26.0054 25.9211 26.2843 26.076 26.5241L32.292 36.28C32.3386 36.3533 32.3703 36.435 32.3852 36.5205C32.4002 36.606 32.3981 36.6937 32.3792 36.7784C32.3602 36.8631 32.3248 36.9432 32.2748 37.0142C32.2248 37.0852 32.1613 37.1456 32.088 37.192C31.9392 37.283 31.7609 37.3126 31.5907 37.2745C31.4205 37.2365 31.2718 37.1337 31.176 36.988L25.272 27.676C25.1435 27.4713 24.9671 27.3009 24.758 27.1797C24.549 27.0584 24.3135 26.9899 24.072 26.98C23.8186 26.9802 23.5694 27.044 23.3471 27.1656C23.1248 27.2872 22.9367 27.4628 22.8 27.676L16.8 37.036C16.759 37.1195 16.7008 37.1933 16.6293 37.2527C16.5577 37.3121 16.4744 37.3557 16.3849 37.3807C16.2953 37.4057 16.2015 37.4114 16.1096 37.3976C16.0176 37.3838 15.9296 37.3507 15.8514 37.3005C15.7731 37.2503 15.7063 37.1841 15.6554 37.1064C15.6045 37.0286 15.5706 36.9409 15.5559 36.8491C15.5412 36.7573 15.5461 36.6634 15.5703 36.5736C15.5944 36.4838 15.6372 36.4001 15.696 36.3281L22.092 26.236C22.2487 25.9972 22.3321 25.7177 22.332 25.432V21.7121C22.3324 21.3264 22.1843 20.9554 21.9184 20.6761C21.6525 20.3967 21.2892 20.2306 20.904 20.2121C18.4726 20.0989 16.049 19.8545 13.644 19.4801C13.5577 19.468 13.4749 19.4383 13.4006 19.3929C13.3263 19.3475 13.2621 19.2873 13.212 19.2161C13.1316 19.1118 13.0849 18.9856 13.078 18.8542C13.0711 18.7228 13.1044 18.5924 13.1734 18.4803C13.2425 18.3683 13.344 18.2799 13.4645 18.227C13.585 18.1741 13.7188 18.1591 13.848 18.1841C20.6373 19.2641 27.5547 19.2641 34.344 18.1841C34.5167 18.1591 34.6925 18.2011 34.8352 18.3015C34.978 18.4019 35.077 18.553 35.112 18.7241C35.1363 18.8971 35.0923 19.0728 34.9893 19.214C34.8862 19.3551 34.7322 19.4505 34.56 19.4801Z" fill="black"/>
</svg>
