<svg width="40" height="40" viewBox="0 0 40 40" fill="none" xmlns="http://www.w3.org/2000/svg">
<path fill-rule="evenodd" clip-rule="evenodd" d="M7.186 0.280029C8.1091 0.280029 8.8574 1.02835 8.8574 1.95146V5.29432H12.2C13.1231 5.29432 13.8714 6.04264 13.8714 6.96574C13.8714 7.88884 13.1231 8.63714 12.2 8.63714H8.8574V11.98C8.8574 12.9031 8.1091 13.6514 7.186 13.6514C6.2629 13.6514 5.51456 12.9031 5.51456 11.98V8.63714H2.17143C1.24832 8.63714 0.5 7.88884 0.5 6.96574C0.5 6.04264 1.24832 5.29432 2.17143 5.29432H5.51456V1.95146C5.51456 1.02835 6.2629 0.280029 7.186 0.280029ZM18.886 1.39432C17.9629 1.39432 17.2146 2.14264 17.2146 3.06575C17.2146 3.98885 17.9629 4.73718 18.886 4.73718H31.1431C33.9124 4.73718 36.1574 6.98214 36.1574 9.75144V22.0086H25.5714C23.7252 22.0086 22.2286 23.5052 22.2286 25.3514V35.9371H9.9717C7.2024 35.9371 4.95742 33.6922 4.95742 30.9229V18.6657C4.95742 17.7426 4.20909 16.9943 3.28599 16.9943C2.36288 16.9943 1.61456 17.7426 1.61456 18.6657V30.9229C1.61456 35.5384 5.35618 39.28 9.9717 39.28H22.7536C24.379 39.28 25.9378 38.6343 27.0871 37.485L37.7053 26.8669C38.8546 25.7175 39.5003 24.1587 39.5003 22.5333V9.75144C39.5003 5.13594 35.7587 1.39432 31.1431 1.39432H18.886ZM25.5714 34.2732L34.4932 25.3514H25.5714V34.2732Z" fill="#1D1C1D"/>
</svg>
