<svg width="48" height="47" viewBox="0 0 48 47" fill="none" xmlns="http://www.w3.org/2000/svg">
<path d="M42.0001 0.18019H6.00021C5.32889 0.178612 4.66383 0.309277 4.04301 0.564722C3.42219 0.820169 2.85776 1.19539 2.38196 1.66897C1.90614 2.14255 1.52828 2.7052 1.26992 3.32482C1.01156 3.94444 0.877778 4.60887 0.876203 5.28019V41.2802C0.869835 41.9559 0.997847 42.6263 1.2528 43.2522C1.50776 43.878 1.88456 44.4471 2.36132 44.9261C2.83808 45.405 3.40529 45.7845 4.02998 46.0424C4.65467 46.3002 5.32439 46.4313 6.00021 46.4282H42.0001C42.676 46.4313 43.3458 46.3002 43.9704 46.0424C44.5952 45.7845 45.1623 45.405 45.6391 44.9261C46.1158 44.4471 46.4927 43.878 46.7477 43.2522C47.0025 42.6263 47.1306 41.9559 47.1241 41.2802V5.28019C47.1226 4.60887 46.9888 3.94444 46.7305 3.32482C46.4721 2.7052 46.0943 2.14255 45.6185 1.66897C45.1427 1.19539 44.5782 0.820169 43.9573 0.564722C43.3365 0.309277 42.6715 0.178612 42.0001 0.18019ZM44.1241 41.2802C44.1306 41.562 44.0803 41.8422 43.9761 42.1041C43.872 42.3662 43.7161 42.6044 43.518 42.8049C43.3198 43.0053 43.0833 43.1639 42.8224 43.271C42.5617 43.3779 42.282 43.4315 42.0001 43.4282H6.00021C5.71833 43.4315 5.43867 43.3779 5.17791 43.271C4.91715 43.1639 4.68062 43.0053 4.48241 42.8049C4.2842 42.6044 4.12838 42.3662 4.02423 42.1041C3.92009 41.8422 3.86975 41.562 3.87621 41.2802V5.28019C3.87618 5.00238 3.93129 4.72734 4.03832 4.47097C4.14536 4.21461 4.30218 3.98203 4.49975 3.78672C4.6973 3.59139 4.93164 3.43722 5.18919 3.3331C5.44676 3.22899 5.72241 3.17701 6.00021 3.18019H42.0001C42.2779 3.17701 42.5537 3.22899 42.8112 3.3331C43.0688 3.43722 43.3031 3.59139 43.5006 3.78672C43.6982 3.98203 43.855 4.21461 43.9621 4.47097C44.0691 4.72734 44.1241 5.00238 44.1241 5.28019V41.2802Z" fill="#1D1C1D"/>
<path d="M34.884 15.876H31.2L31.716 12.396C31.7444 12.2006 31.7339 12.0015 31.6854 11.8101C31.6368 11.6187 31.551 11.4388 31.4328 11.2805C31.1943 10.961 30.8387 10.7492 30.444 10.692C30.0494 10.6347 29.6481 10.7365 29.3285 10.9751C29.009 11.2136 28.7972 11.5693 28.74 11.964L28.164 15.876H22.476L22.98 12.396C23.0207 12.196 23.0201 11.9899 22.9784 11.7902C22.9365 11.5904 22.8545 11.4013 22.7372 11.2344C22.6199 11.0675 22.4697 10.9263 22.2959 10.8194C22.122 10.7125 21.9282 10.6422 21.7263 10.6127C21.5244 10.5833 21.3186 10.5954 21.1217 10.6482C20.9246 10.701 20.7404 10.7935 20.5802 10.92C20.4201 11.0465 20.2875 11.2043 20.1905 11.3838C20.0934 11.5633 20.034 11.7607 20.016 11.964L19.44 15.876H14.5439C14.1461 15.876 13.7646 16.034 13.4833 16.3152C13.202 16.5966 13.0439 16.9781 13.0439 17.376C13.0439 17.7738 13.202 18.1553 13.4833 18.4367C13.7646 18.7179 14.1461 18.876 14.5439 18.876H19.008L17.928 26.268H13.1279C12.7301 26.268 12.3486 26.426 12.0673 26.7072C11.786 26.9886 11.6279 27.3701 11.6279 27.768C11.6279 28.1658 11.786 28.5473 12.0673 28.8287C12.3486 29.1099 12.7301 29.268 13.1279 29.268H17.496L16.8 34.212C16.7402 34.5962 16.8318 34.9886 17.0556 35.3064C17.2796 35.6243 17.6181 35.8428 18 35.916H18.228C18.587 35.9139 18.9333 35.7833 19.2041 35.5476C19.475 35.3121 19.6523 34.9872 19.704 34.632L20.52 29.28H26.184L25.464 34.224C25.4055 34.6169 25.5053 35.0171 25.7415 35.3366C25.9778 35.6561 26.331 35.8688 26.724 35.928H26.952C27.311 35.9259 27.6573 35.7953 27.9281 35.5596C28.199 35.3241 28.3763 34.9992 28.428 34.644L29.22 29.28H33.456C33.8538 29.28 34.2353 29.1219 34.5167 28.8407C34.7979 28.5593 34.956 28.1778 34.956 27.78C34.956 27.3821 34.7979 27.0006 34.5167 26.7192C34.2353 26.438 33.8538 26.28 33.456 26.28H29.652L30.744 18.888H34.884C35.2818 18.888 35.6633 18.7299 35.9447 18.4487C36.2259 18.1673 36.384 17.7858 36.384 17.388C36.384 16.9901 36.2259 16.6086 35.9447 16.3272C35.6633 16.046 35.2818 15.888 34.884 15.888V15.876ZM26.628 26.268H20.952L22.032 18.876H27.708L26.628 26.268Z" fill="#1D1C1D"/>
</svg>
