<svg width="48" height="32" viewBox="0 0 48 32" fill="none" xmlns="http://www.w3.org/2000/svg">
<path d="M45.3842 2.07994C44.8686 1.78642 44.2854 1.63207 43.6922 1.63207C43.0989 1.63207 42.5157 1.78642 42.0002 2.07994L34.8002 6.27994V5.36794C34.8002 4.01535 34.2629 2.71813 33.3065 1.7617C32.3499 0.805274 31.0527 0.267944 29.7002 0.267944H6.00015C4.64754 0.267944 3.35034 0.805274 2.39389 1.7617C1.43747 2.71813 0.900146 4.01535 0.900146 5.36794V26.6199C0.900146 27.2896 1.03206 27.9529 1.28836 28.5717C1.54465 29.1904 1.92033 29.7526 2.39389 30.2262C2.86747 30.6997 3.4297 31.0755 4.04845 31.3317C4.66722 31.588 5.3304 31.7199 6.00015 31.7199H29.6762C30.3479 31.7232 31.0137 31.5936 31.6352 31.3386C32.2568 31.0837 32.8218 30.7086 33.2979 30.2347C33.774 29.7609 34.1519 29.1975 34.4097 28.5772C34.6674 27.9568 34.8002 27.2917 34.8002 26.6199V25.7079L42.0002 29.8599C42.5219 30.1609 43.1139 30.3183 43.7162 30.3159C44.3148 30.3196 44.9034 30.1621 45.4202 29.8599C45.944 29.5632 46.3791 29.1321 46.6808 28.6111C46.9824 28.09 47.1396 27.498 47.1362 26.8959V5.09194C47.1447 4.4782 46.9863 3.87369 46.6776 3.34312C46.3691 2.81254 45.9219 2.37591 45.3842 2.07994ZM31.7762 7.95988V26.6199C31.7762 27.1768 31.5549 27.711 31.161 28.1049C30.7673 28.4986 30.2331 28.7199 29.6762 28.7199H6.00015C5.44318 28.7199 4.90905 28.4986 4.51522 28.1049C4.1214 27.711 3.90015 27.1768 3.90015 26.6199V5.36794C3.90331 4.81308 4.12596 4.28202 4.51945 3.89077C4.91293 3.49954 5.44527 3.27994 6.00015 3.27994H29.6762C30.2331 3.27994 30.7673 3.50119 31.161 3.89502C31.5549 4.28884 31.7762 4.82299 31.7762 5.37994V7.95988ZM44.1002 26.8959C44.1015 26.9701 44.082 27.0433 44.0438 27.1069C44.0057 27.1705 43.9503 27.2223 43.8842 27.2559C43.8224 27.2982 43.7492 27.3208 43.6742 27.3208C43.5992 27.3208 43.526 27.2982 43.4642 27.2559L34.8002 22.2399V9.74788L43.4882 4.73195C43.55 4.68964 43.6232 4.66701 43.6982 4.66701C43.7732 4.66701 43.8464 4.68964 43.9082 4.73195C43.9743 4.76568 44.0297 4.81732 44.0678 4.88097C44.106 4.94463 44.1255 5.01772 44.1242 5.09194L44.1002 26.8959Z" fill="#1D1C1D"/>
<path d="M25.6082 15.532C25.242 15.4045 24.8404 15.4263 24.4902 15.5923C24.1398 15.7585 23.8691 16.0558 23.7361 16.42C23.2956 17.6182 22.4996 18.6531 21.4545 19.3863C20.4096 20.1195 19.1655 20.5158 17.889 20.5224C16.6125 20.5288 15.3644 20.1453 14.3119 19.4227C13.2595 18.7003 12.4529 17.6736 12.0001 16.48C11.8474 16.1431 11.5738 15.8758 11.2334 15.7311C10.893 15.5863 10.5106 15.5748 10.1621 15.6985C9.81347 15.8223 9.52404 16.0723 9.35109 16.3993C9.17814 16.7263 9.13427 17.1063 9.22814 17.464C9.86816 19.2492 11.044 20.7931 12.5948 21.8845C14.1456 22.9761 15.9957 23.5618 17.8921 23.5618C19.7886 23.5618 21.6387 22.9761 23.1895 21.8845C24.7402 20.7931 25.9161 19.2492 26.5562 17.464C26.6292 17.2755 26.6623 17.0739 26.6535 16.872C26.6448 16.6699 26.5942 16.4719 26.5053 16.2904C26.4162 16.1089 26.2905 15.9478 26.1362 15.8173C25.9817 15.6868 25.802 15.5896 25.6082 15.532Z" fill="#1D1C1D"/>
<path d="M14.844 14.668C15.1924 14.6703 15.5337 14.5695 15.8247 14.3781C16.1158 14.1868 16.3438 13.9135 16.4799 13.5928C16.6159 13.2721 16.6539 12.9183 16.5891 12.576C16.5243 12.2337 16.3596 11.9182 16.1158 11.6694C15.8719 11.4205 15.5599 11.2495 15.2191 11.1778C14.8782 11.1061 14.5237 11.1369 14.2003 11.2663C13.8769 11.3958 13.599 11.6182 13.4018 11.9053C13.2046 12.1926 13.0968 12.5316 13.092 12.88C13.0873 13.1131 13.129 13.3447 13.2149 13.5615C13.3008 13.7782 13.4291 13.9756 13.5923 14.1421C13.7555 14.3086 13.9502 14.4409 14.1652 14.5312C14.3801 14.6215 14.6109 14.668 14.844 14.668Z" fill="#1D1C1D"/>
<path d="M20.5558 14.668C20.9041 14.6703 21.2454 14.5695 21.5365 14.3781C21.8277 14.1868 22.0555 13.9135 22.1916 13.5928C22.3276 13.2721 22.3657 12.9183 22.3009 12.576C22.2361 12.2337 22.0714 11.9182 21.8277 11.6694C21.5838 11.4205 21.2718 11.2495 20.9308 11.1778C20.59 11.1061 20.2354 11.1369 19.912 11.2663C19.5886 11.3958 19.3108 11.6182 19.1136 11.9053C18.9163 12.1926 18.8086 12.5316 18.8038 12.88C18.799 13.1131 18.8407 13.3447 18.9267 13.5615C19.0126 13.7782 19.1409 13.9756 19.3041 14.1421C19.4673 14.3086 19.662 14.4409 19.8769 14.5312C20.0919 14.6215 20.3227 14.668 20.5558 14.668Z" fill="#1D1C1D"/>
</svg>
