<svg width="40" height="47" viewBox="0 0 40 47" fill="none" xmlns="http://www.w3.org/2000/svg">
<path d="M34.3997 3.87603H21.1157L22.2557 2.67603C22.5104 2.38954 22.6457 2.01642 22.634 1.63329C22.6222 1.25014 22.4642 0.886064 22.1923 0.615784C21.9205 0.345503 21.5555 0.189541 21.1724 0.179917C20.7892 0.170293 20.4169 0.307738 20.1317 0.564031L16.5317 4.16403C16.3921 4.30336 16.2812 4.46889 16.2056 4.65112C16.13 4.83336 16.091 5.02873 16.091 5.22603C16.091 5.42334 16.13 5.6187 16.2056 5.80093C16.2812 5.98317 16.3921 6.14869 16.5317 6.28803L20.1317 9.88803C20.2715 10.029 20.4379 10.1409 20.6213 10.2171C20.8046 10.2933 21.0013 10.3324 21.1997 10.332C21.3967 10.3335 21.5918 10.2949 21.7735 10.2186C21.955 10.1422 22.1191 10.0298 22.2557 9.88803C22.3951 9.74971 22.5056 9.58521 22.5811 9.40396C22.6565 9.22273 22.6954 9.02835 22.6954 8.83203C22.6954 8.63571 22.6565 8.44134 22.5811 8.26009C22.5056 8.07886 22.3951 7.91434 22.2557 7.77603L21.3077 6.82803H34.3997C34.9558 6.83118 35.4881 7.05345 35.8813 7.44658C36.2744 7.83973 36.4966 8.37205 36.4997 8.92803V37.68C36.4966 38.2361 36.2744 38.7683 35.8813 39.1614C35.4881 39.5546 34.9558 39.7769 34.3997 39.78H28.3997C28.0019 39.78 27.6205 39.9381 27.3391 40.2194C27.0578 40.5006 26.8997 40.8822 26.8997 41.28C26.8997 41.6778 27.0578 42.0594 27.3391 42.3407C27.6205 42.6219 28.0019 42.78 28.3997 42.78H34.3997C35.7514 42.7769 37.0468 42.2385 38.0026 41.2827C38.9582 40.3271 39.4966 39.0317 39.4997 37.68V8.97603C39.4966 7.62439 38.9582 6.32904 38.0026 5.37328C37.0468 4.41754 35.7514 3.87919 34.3997 3.87603Z" fill="#1D1C1D"/>
<path d="M19.832 36.624C19.547 36.3677 19.1745 36.2303 18.7914 36.2399C18.4082 36.2495 18.0432 36.4055 17.7714 36.6758C17.4996 36.9461 17.3415 37.3101 17.3298 37.6932C17.318 38.0763 17.4533 38.4495 17.708 38.736L18.752 39.78H5.6C5.04401 39.7769 4.51171 39.5546 4.11856 39.1614C3.72541 38.7683 3.50315 38.2359 3.5 37.68V8.97599C3.50315 8.42 3.72541 7.88768 4.11856 7.49455C4.51171 7.1014 5.04401 6.87914 5.6 6.87599H11.6C11.9978 6.87599 12.3794 6.71795 12.6606 6.43664C12.9419 6.15535 13.1 5.77381 13.1 5.37598C13.1 4.97816 12.9419 4.59662 12.6606 4.31533C12.3794 4.03402 11.9978 3.87598 11.6 3.87598H5.6C4.24836 3.87916 2.95301 4.41749 1.99725 5.37325C1.0415 6.32899 0.503165 7.62436 0.5 8.97599V37.68C0.503165 39.0317 1.0415 40.3269 1.99725 41.2827C2.95301 42.2385 4.24836 42.7769 5.6 42.78H18.8L17.756 43.824C17.5487 44.033 17.4075 44.2983 17.3501 44.5869C17.2925 44.8757 17.3213 45.1748 17.4324 45.4473C17.5437 45.7197 17.7327 45.9536 17.9759 46.1193C18.219 46.2852 18.5057 46.3758 18.8 46.38C18.9969 46.3814 19.1921 46.3428 19.3736 46.2665C19.5552 46.1901 19.7193 46.0778 19.856 45.936L23.456 42.336C23.5956 42.1967 23.7065 42.0311 23.7821 41.8488C23.8577 41.6666 23.8967 41.4713 23.8967 41.274C23.8967 41.0766 23.8577 40.8813 23.7821 40.6991C23.7065 40.5168 23.5956 40.3514 23.456 40.212L19.832 36.624Z" fill="#1D1C1D"/>
<path d="M18.2841 13.3079C17.9099 13.2589 17.5311 13.3564 17.2271 13.58C16.923 13.8036 16.7169 14.136 16.6521 14.5079L16.2561 17.2799H12.7281C12.3462 17.2799 11.9799 17.4315 11.7099 17.7017C11.4398 17.9717 11.2881 18.338 11.2881 18.7199C11.2881 19.1018 11.4398 19.4681 11.7099 19.7381C11.9799 20.0081 12.3462 20.1599 12.7281 20.1599H15.8361L15.0801 25.2719H11.6001C11.4008 25.2536 11.1998 25.2771 11.01 25.3409C10.8203 25.4046 10.646 25.5072 10.4981 25.6422C10.3503 25.7771 10.2321 25.9415 10.1513 26.1246C10.0705 26.3078 10.0288 26.5056 10.0288 26.7059C10.0288 26.906 10.0705 27.104 10.1513 27.2871C10.2321 27.4703 10.3503 27.6345 10.4981 27.7695C10.646 27.9044 10.8203 28.0071 11.01 28.0709C11.1998 28.1346 11.4008 28.1582 11.6001 28.1399H14.6241L14.1561 31.6799C14.1041 32.0546 14.2004 32.4348 14.4245 32.7396C14.6486 33.0444 14.9829 33.2498 15.3561 33.3119H15.5721C15.9117 33.311 16.2401 33.1901 16.4993 32.9705C16.7583 32.7509 16.9314 32.4467 16.9881 32.1119L17.6001 28.1399H21.3921L20.8401 31.6799C20.7881 32.0546 20.8844 32.4348 21.1085 32.7396C21.3326 33.0444 21.6669 33.2498 22.0401 33.3119H22.2561C22.5957 33.311 22.9241 33.1901 23.1833 32.9705C23.4423 32.7509 23.6154 32.4467 23.6721 32.1119L24.2481 28.2119H27.2601C27.6177 28.1792 27.9503 28.0139 28.1924 27.7485C28.4346 27.4832 28.5687 27.137 28.5687 26.7779C28.5687 26.4186 28.4346 26.0724 28.1924 25.8072C27.9503 25.5419 27.6177 25.3766 27.2601 25.3439H24.6801L25.4241 20.2319H28.4001C28.7916 20.2319 29.1669 20.0763 29.4438 19.7996C29.7206 19.5227 29.8761 19.1474 29.8761 18.7559C29.8761 18.3644 29.7206 17.9889 29.4438 17.7122C29.1669 17.4354 28.7916 17.2799 28.4001 17.2799H25.8801L26.2281 14.9399C26.2802 14.5652 26.1839 14.1849 25.9598 13.88C25.7355 13.5752 25.4013 13.3699 25.0281 13.3079C24.6548 13.2561 24.276 13.3527 23.973 13.5771C23.6702 13.8014 23.4674 14.1356 23.4081 14.5079L22.9401 17.2799H19.1601L19.4961 14.9399C19.551 14.5628 19.4544 14.1794 19.2272 13.8735C19.0001 13.5676 18.6609 13.3642 18.2841 13.3079ZM22.5201 20.1599L21.7761 25.2719H17.9841L18.8001 20.1599H22.5201Z" fill="#1D1C1D"/>
</svg>
