<svg width="38" height="39" viewBox="0 0 38 39" fill="none" xmlns="http://www.w3.org/2000/svg">
<path fill-rule="evenodd" clip-rule="evenodd" d="M7.859 8.08103C4.89262 10.9225 3.10083 14.6022 3.10083 18.0801V22.0382C4.75757 20.512 6.97 19.58 9.4001 19.58H9.7501C12.0421 19.58 13.9001 21.438 13.9001 23.73V34.03C13.9001 36.322 12.0421 38.18 9.7501 38.18H9.4001C4.26385 38.18 0.100098 34.0162 0.100098 28.88C0.100098 28.8406 0.100338 28.8013 0.100828 28.762V18.0801C0.100828 13.6051 2.36985 9.18483 5.7838 5.91453C9.2085 2.63411 13.9171 0.380127 19.0008 0.380127C24.0845 0.380127 28.7932 2.63411 32.2178 5.91453C35.6318 9.18483 37.9008 13.6051 37.9008 18.0801V28.8366L37.9009 28.88C37.9009 34.0162 33.7372 38.18 28.6009 38.18H28.2509C25.959 38.18 24.1009 36.322 24.1009 34.03V23.73C24.1009 21.438 25.959 19.58 28.2509 19.58H28.6009C31.0313 19.58 33.244 20.5123 34.9008 22.0388V18.0801C34.9008 14.6022 33.109 10.9225 30.1426 8.08103C27.1869 5.2497 23.1955 3.38013 19.0008 3.38013C14.8062 3.38013 10.8148 5.2497 7.859 8.08103ZM3.1001 28.8801C3.10016 32.3594 5.9207 35.18 9.4001 35.18H9.7501C10.3852 35.18 10.9001 34.6651 10.9001 34.03V23.73C10.9001 23.0949 10.3852 22.58 9.7501 22.58H9.4001C5.9531 22.58 3.15273 25.3483 3.10083 28.7829L3.1001 28.8801ZM34.9008 28.8801V28.8443C34.8816 25.3813 32.0684 22.58 28.6009 22.58H28.2509C27.6158 22.58 27.1009 23.0949 27.1009 23.73V34.03C27.1009 34.6651 27.6158 35.18 28.2509 35.18H28.6009C32.0803 35.18 34.9008 32.3594 34.9008 28.8801Z" fill="#1D1C1D"/>
</svg>
