<svg width="48" height="41" viewBox="0 0 48 41" fill="none" xmlns="http://www.w3.org/2000/svg">
<path d="M42.0001 8.57594H29.9161V5.38394C29.9161 4.03133 29.3788 2.73413 28.4224 1.77768C27.4659 0.821251 26.1687 0.283936 24.8162 0.283936H6.00015C4.64851 0.287101 3.35314 0.825435 2.3974 1.78119C1.44165 2.73693 0.903314 4.0323 0.900146 5.38394V21.3079C0.900146 22.6606 1.43747 23.9578 2.39389 24.9142C3.35034 25.8706 4.64754 26.4079 6.00015 26.4079H7.92015V30.5359C7.91979 30.8224 8.0008 31.103 8.15376 31.3453C8.30673 31.5874 8.52534 31.7812 8.78415 31.9039C9.0462 32.0189 9.33483 32.0596 9.61843 32.0215C9.90204 31.9834 10.1697 31.868 10.3921 31.6879L16.7041 26.4079H18.0842V29.5879C18.0842 30.9437 18.6228 32.2439 19.5815 33.2027C20.5401 34.1614 21.8403 34.6999 23.1961 34.6999H31.2962L37.6082 39.9919C37.8824 40.2166 38.2257 40.3396 38.5802 40.3399C38.8002 40.3396 39.0174 40.2904 39.2161 40.1959C39.4731 40.0741 39.6905 39.8822 39.8433 39.6422C39.9962 39.4024 40.0782 39.1243 40.0802 38.8399V34.6999H42.0001C43.3527 34.6999 44.6499 34.1626 45.6065 33.2062C46.5629 32.2498 47.1002 30.9526 47.1002 29.5999V13.6759C47.097 12.3244 46.5586 11.029 45.6028 10.0732C44.6472 9.11744 43.3518 8.5791 42.0001 8.57594ZM16.1521 23.4079C15.8024 23.4139 15.4646 23.5363 15.1922 23.7559L10.9201 27.3559V24.9559C10.9201 24.5581 10.7621 24.1766 10.4808 23.8952C10.1995 23.614 9.81796 23.4559 9.42015 23.4559H6.00015C5.44318 23.4559 4.90905 23.2346 4.51522 22.8409C4.1214 22.447 3.90015 21.9128 3.90015 21.3559V5.38394C3.9033 4.82795 4.12555 4.29564 4.5187 3.90249C4.91185 3.50934 5.44416 3.28709 6.00015 3.28394H24.8162C25.3731 3.28394 25.9073 3.50519 26.301 3.89901C26.6949 4.29284 26.9161 4.82697 26.9161 5.38394V21.2959C26.9161 21.5732 26.8616 21.8479 26.7554 22.1042C26.6493 22.3604 26.4936 22.5932 26.2976 22.7893C26.1015 22.9855 25.8685 23.141 25.6124 23.2472C25.3561 23.3533 25.0815 23.4079 24.8041 23.4079H16.1521ZM44.1002 29.5999C44.1002 30.1568 43.8789 30.691 43.485 31.0849C43.0913 31.4786 42.5571 31.6999 42.0001 31.6999H38.5802C38.1824 31.6999 37.8008 31.858 37.5195 32.1392C37.2383 32.4206 37.0802 32.8021 37.0802 33.1999V35.5999L32.8082 31.9999C32.5409 31.7699 32.2006 31.6424 31.8481 31.6399H23.1961C22.636 31.6399 22.0988 31.4174 21.7028 31.0213C21.3066 30.6253 21.0842 30.0881 21.0842 29.5279V26.4079H24.8162C26.1687 26.4079 27.4659 25.8706 28.4224 24.9142C29.3788 23.9578 29.9161 22.6606 29.9161 21.3079V11.5879H42.0001C42.5562 11.591 43.0884 11.8133 43.4815 12.2065C43.8747 12.5996 44.097 13.132 44.1002 13.6879V29.5999Z" fill="#1D1C1D"/>
<path d="M9.16803 11.5519C8.854 11.5589 8.54905 11.6585 8.29137 11.8382C8.03368 12.0178 7.83474 12.2695 7.71943 12.5617C7.60414 12.8539 7.57762 13.1735 7.64322 13.4807C7.7088 13.7879 7.86357 14.0689 8.08815 14.2885C8.31271 14.5081 8.5971 14.6566 8.90568 14.7154C9.21424 14.774 9.53328 14.7404 9.82282 14.6186C10.1124 14.4968 10.3595 14.2924 10.5334 14.0308C10.7072 13.769 10.8 13.462 10.8 13.1479C10.8017 12.9347 10.7604 12.7235 10.6786 12.5267C10.5967 12.3299 10.476 12.1517 10.3236 12.0026C10.1712 11.8537 9.99033 11.737 9.79176 11.6594C9.5932 11.582 9.38106 11.5454 9.16803 11.5519Z" fill="#1D1C1D"/>
<path d="M15.444 11.5519C15.1288 11.5543 14.8215 11.65 14.5606 11.8267C14.2997 12.0036 14.097 12.2536 13.9781 12.5455C13.8591 12.8373 13.8292 13.1578 13.8921 13.4667C13.9551 13.7754 14.108 14.0587 14.3317 14.2807C14.5554 14.5027 14.8398 14.6535 15.1489 14.7141C15.4582 14.7747 15.7785 14.7424 16.0695 14.6214C16.3603 14.5002 16.609 14.2956 16.7838 14.0334C16.9587 13.7712 17.052 13.4631 17.052 13.1479C17.052 12.9373 17.0103 12.7288 16.9293 12.5344C16.8484 12.34 16.7298 12.1635 16.5802 12.0151C16.4308 11.8668 16.2534 11.7495 16.0584 11.67C15.8634 11.5905 15.6546 11.5504 15.444 11.5519Z" fill="#1D1C1D"/>
<path d="M21.7322 14.7439C22.0478 14.7439 22.3565 14.6503 22.6188 14.4749C22.8813 14.2996 23.0859 14.0503 23.2067 13.7587C23.3274 13.4671 23.3591 13.1461 23.2976 12.8365C23.2359 12.5269 23.084 12.2425 22.8608 12.0193C22.6376 11.7961 22.3532 11.6441 22.0436 11.5825C21.734 11.521 21.413 11.5526 21.1214 11.6734C20.8298 11.7941 20.5805 11.9987 20.4051 12.2612C20.2298 12.5236 20.1362 12.8323 20.1362 13.1479C20.1345 13.3579 20.1747 13.5662 20.2544 13.7605C20.334 13.9549 20.4516 14.1314 20.6001 14.2799C20.7486 14.4284 20.9252 14.546 21.1196 14.6257C21.3138 14.7053 21.5222 14.7455 21.7322 14.7439Z" fill="#1D1C1D"/>
</svg>


